<svg width="188" height="45" viewBox="0 0 188 45" fill="none" xmlns="http://www.w3.org/2000/svg">
<path d="M22.8698 45C10.4327 45 0.351379 34.9269 0.351379 22.5C0.351379 10.0731 10.4327 0 22.8698 0C35.3069 0 45.3882 10.0731 45.3882 22.5C45.3882 34.9269 35.3069 45 22.8698 45Z" fill="url(#paint0_linear_1_510)"/>
<path d="M22.6743 22.5183C22.6785 22.5183 22.6813 22.5183 22.6855 22.5183C22.8115 22.5183 22.9374 22.5155 23.062 22.5085C23.062 22.5001 23.062 22.4903 23.0634 22.4819C22.9318 22.4917 22.8031 22.5029 22.6743 22.5183Z" fill="white"/>
<path d="M22.8807 22.3364C22.8709 22.4456 22.8625 22.5547 22.8569 22.6653C22.8625 22.6653 22.8667 22.6653 22.8723 22.6639C22.8779 22.5561 22.8807 22.447 22.8807 22.3364Z" fill="white"/>
<path d="M22.858 22.6525C22.8678 22.5517 22.8748 22.4496 22.8804 22.3474C22.8748 22.3474 22.8706 22.3474 22.865 22.3488C22.8608 22.4496 22.858 22.5517 22.858 22.6525Z" fill="white"/>
<path d="M22.8628 22.4887C22.8628 22.4968 22.8628 22.505 22.8614 22.5145C22.8668 22.5145 22.8709 22.5145 22.8764 22.5132C22.8764 22.505 22.8764 22.4955 22.8777 22.4873C22.8723 22.4873 22.8668 22.4873 22.8628 22.4887Z" fill="white"/>
<path d="M22.4993 8.64722C19.6085 8.64722 17.1295 10.4133 16.0846 12.9239C15.7863 13.639 15.6042 14.4157 15.5636 15.2287C15.558 15.3477 15.5552 15.4666 15.5552 15.587C15.5552 16.2685 15.6547 16.9276 15.8367 17.549C15.8633 17.6385 15.8914 17.7267 15.9208 17.8135C15.9292 17.8373 15.9376 17.8611 15.9446 17.8834C15.9712 17.9576 15.9978 18.0332 16.0272 18.106C16.0328 18.1199 16.037 18.1325 16.0426 18.1465C16.0762 18.2319 16.1126 18.3159 16.1491 18.3984C16.1589 18.4194 16.1687 18.4404 16.1785 18.4614C16.2093 18.5286 16.2415 18.5957 16.2737 18.6629C16.2835 18.6811 16.2919 18.7007 16.3017 18.7189C16.3423 18.8001 16.3858 18.8798 16.4292 18.9582C16.439 18.975 16.4488 18.9918 16.4586 19.0086C16.495 19.073 16.5328 19.1373 16.572 19.2017C16.5846 19.2213 16.5958 19.2423 16.6084 19.2619C16.6561 19.3388 16.7051 19.4144 16.7569 19.4886C16.7639 19.4984 16.7709 19.5082 16.7779 19.518C16.8227 19.5837 16.8704 19.6481 16.918 19.7125C16.932 19.7321 16.9474 19.7517 16.9628 19.7713C17.0146 19.8398 17.0678 19.907 17.1225 19.9742C17.1253 19.9784 17.1281 19.9826 17.1323 19.9854C17.1799 20.0442 17.2289 20.1015 17.2779 20.1575L17.2751 20.1533C17.2807 20.1589 17.2849 20.1645 17.2905 20.1701C17.2877 20.1673 17.2835 20.1631 17.2807 20.1603C17.2905 20.1715 17.2989 20.1813 17.3087 20.1911C17.3241 20.2093 17.341 20.2275 17.3578 20.2443C17.3914 20.2821 17.425 20.3184 17.46 20.3548C17.4558 20.3506 17.453 20.3464 17.4488 20.3422C17.4698 20.3646 17.4908 20.3884 17.5132 20.4108C17.495 20.3926 17.4768 20.373 17.46 20.3548C17.7723 20.7299 18.1323 21.3232 18.2079 21.7207C18.2345 21.862 18.2499 22.0076 18.2499 22.1559C18.2499 22.6723 18.0805 23.1481 17.7933 23.5329C17.3732 24.0969 16.6995 24.4622 15.9418 24.4622C15.8059 24.4622 15.6715 24.4496 15.5412 24.4272C14.4572 24.2382 13.6336 23.2936 13.6336 22.1573C13.6336 21.4016 13.9964 20.7313 14.558 20.3114C14.1616 19.6467 13.8451 18.9274 13.6238 18.1689C13.3997 17.4006 13.2737 16.5904 13.2597 15.7535C10.7555 16.8017 8.99493 19.2745 8.99493 22.1573C8.99493 25.3522 11.156 28.0419 14.0958 28.8494C14.6827 29.0103 15.3017 29.0971 15.9404 29.0971C16.0902 29.0971 16.2387 29.0915 16.3858 29.0831C17.2429 29.0285 18.0566 28.82 18.8017 28.4827C19.7906 28.0349 20.6561 27.3632 21.3326 26.5319C21.7303 26.0435 22.0623 25.4991 22.3158 24.9142C22.3298 24.8834 22.3424 24.8512 22.3564 24.8204C22.6183 24.1907 22.7906 23.5147 22.8564 22.8066C22.8564 22.7087 22.8592 22.6121 22.8634 22.5155C22.7444 22.5211 22.6239 22.5253 22.5021 22.5253C22.4979 22.5253 22.4951 22.5253 22.4909 22.5253C22.6141 22.5099 22.7388 22.4988 22.8634 22.4918C22.869 22.3854 22.876 22.2804 22.8858 22.1755C22.8858 22.1699 22.8858 22.1643 22.8858 22.1573C22.8858 21.48 22.7878 20.825 22.6071 20.2051C22.6057 20.2009 22.6043 20.1981 22.6043 20.1939C22.4068 19.5208 22.1085 18.891 21.7289 18.3201C21.6785 18.2445 21.6253 18.1689 21.5721 18.0948C21.5637 18.0822 21.5539 18.0696 21.5455 18.057C21.4936 17.987 21.4404 17.917 21.3858 17.8485C21.3746 17.8359 21.3648 17.8219 21.3536 17.8093C21.2976 17.7393 21.2415 17.6707 21.1827 17.605C21.1771 17.598 21.1715 17.5924 21.1645 17.5854C21.1071 17.521 21.0497 17.4566 20.9894 17.3936C20.981 17.3852 20.974 17.3768 20.9656 17.3684C20.9558 17.3573 20.9446 17.3475 20.9348 17.3363L20.9334 17.3335C20.5273 16.9178 20.1939 16.2125 20.1939 15.5856C20.1939 15.0692 20.3634 14.5934 20.6505 14.2085C21.0707 13.6446 21.7443 13.2793 22.5021 13.2793C23.6043 13.2793 24.5259 14.0518 24.7542 15.0846C25.404 14.6606 26.1099 14.3163 26.8592 14.0644C27.5903 13.8195 28.3621 13.6642 29.1604 13.6096C28.3074 10.7408 25.6491 8.64722 22.4993 8.64722ZM18.1505 15.5786C18.1743 15.587 18.1981 15.5954 18.2219 15.6038C18.1981 15.5954 18.1743 15.587 18.1505 15.5786ZM18.4334 15.6807C18.4502 15.6877 18.4684 15.6933 18.4852 15.7003C18.4684 15.6933 18.4502 15.6877 18.4334 15.6807ZM18.7359 15.8053C18.7555 15.8137 18.7751 15.8235 18.7947 15.8319C18.7751 15.8221 18.7555 15.8137 18.7359 15.8053ZM18.9908 15.9242C19.0118 15.9354 19.0342 15.9452 19.0553 15.9564C19.0342 15.9452 19.0132 15.934 18.9908 15.9242ZM17.544 20.4472C17.6057 20.5102 17.6701 20.5717 17.7345 20.6333C17.6743 20.5773 17.6155 20.52 17.558 20.4612C17.5524 20.457 17.5482 20.4514 17.544 20.4472ZM17.7751 20.6725C17.841 20.7341 17.9068 20.7929 17.9754 20.8516C17.9082 20.7929 17.841 20.7327 17.7751 20.6725ZM17.9964 20.8684C18.0608 20.923 18.1267 20.9776 18.1925 21.0294C18.1267 20.9776 18.0608 20.923 17.9964 20.8684ZM18.488 21.2505C18.5623 21.3036 18.6379 21.3554 18.7149 21.4058C18.6379 21.3554 18.5637 21.3036 18.488 21.2505ZM18.2317 21.0601C18.3017 21.1147 18.3732 21.1679 18.4446 21.2197C18.3718 21.1679 18.3017 21.1147 18.2317 21.0601ZM20.7836 17.1865C20.7654 17.1697 20.7471 17.1515 20.7303 17.1347C20.7471 17.1515 20.7654 17.1697 20.7836 17.1865ZM19.2961 16.0824C19.306 16.088 19.3158 16.0936 19.3242 16.0992C19.3144 16.0922 19.3046 16.0866 19.2961 16.0824ZM19.5314 16.2195C19.5525 16.2321 19.5749 16.2461 19.5959 16.2587C19.5749 16.2461 19.5539 16.2321 19.5314 16.2195ZM19.7934 16.3861C19.8046 16.393 19.8158 16.4 19.8256 16.407C19.8158 16.4 19.8046 16.393 19.7934 16.3861ZM20.0455 16.5624C20.0651 16.5764 20.0833 16.5904 20.1015 16.6044C20.0833 16.5904 20.0651 16.5764 20.0455 16.5624ZM20.2709 16.7359C20.2878 16.7499 20.306 16.7639 20.3228 16.7779C20.306 16.7625 20.2892 16.7485 20.2709 16.7359ZM20.5273 16.95C20.5399 16.9612 20.5525 16.9724 20.5651 16.9836C20.5525 16.9724 20.5399 16.9598 20.5273 16.95Z" fill="white"/>
<path d="M17.2769 20.1589L17.2786 20.1606C17.2769 20.1606 17.2769 20.1589 17.2769 20.1589Z" fill="white"/>
<path d="M31.7262 16.1565C31.1142 15.9802 30.4671 15.885 29.799 15.885C29.6786 15.885 29.5581 15.8878 29.4377 15.8948C28.5862 15.9382 27.7752 16.1355 27.0315 16.4588C26.0035 16.9052 25.1043 17.5937 24.4068 18.4502C24.5665 18.814 24.7038 19.1891 24.8158 19.5739C24.8886 19.8216 24.9503 20.0749 25.0021 20.331C25.1099 20.8684 25.1701 21.4225 25.1814 21.9893C25.1828 22.0453 25.1842 22.1013 25.1842 22.1572C25.1842 22.3476 25.1772 22.5365 25.166 22.7226C25.1281 23.337 25.0315 23.9359 24.8802 24.5125C24.8354 24.6846 24.785 24.8539 24.7304 25.0219C24.5441 25.5942 24.3018 26.1428 24.0119 26.6606C23.9194 26.8243 23.8242 26.9867 23.722 27.1434C24.1379 27.2162 24.5147 27.3995 24.8228 27.6626C24.897 27.7382 24.9727 27.8123 25.0497 27.8851C25.411 28.2923 25.6309 28.8269 25.6309 29.4147C25.6309 29.9409 25.4545 30.4251 25.1575 30.8127C24.736 31.3641 24.0707 31.7209 23.3228 31.7209C22.1981 31.7209 21.2612 30.9163 21.0567 29.8513C20.4082 30.2837 19.7009 30.635 18.9502 30.8939C18.2219 31.1444 17.453 31.3067 16.6561 31.3683C17.5006 34.2511 20.1645 36.3558 23.3228 36.3558C26.2206 36.3558 28.7038 34.5814 29.7444 32.061C30.0413 31.3431 30.2206 30.565 30.2598 29.7491C30.2654 29.6386 30.2682 29.5266 30.2682 29.4161C30.2682 28.7276 30.1674 28.0614 29.9797 27.4331C29.6562 26.3457 29.0721 25.3689 28.3004 24.5769C28.2262 24.5013 28.1506 24.4271 28.0735 24.3544C27.8186 24.0661 27.6338 23.7148 27.5483 23.3258C27.5133 23.1648 27.4937 22.9969 27.4937 22.8248C27.4937 22.2986 27.6702 21.8144 27.9671 21.4267C28.3887 20.8754 29.0539 20.5185 29.8018 20.5185C29.9685 20.5185 30.1296 20.5367 30.2864 20.5703C31.3285 20.7928 32.11 21.7178 32.11 22.8248C32.11 23.5581 31.7683 24.2102 31.2346 24.6328C31.638 25.2976 31.9587 26.0155 32.1856 26.7754C32.4153 27.5436 32.547 28.3539 32.5666 29.1936C35.0274 28.1258 36.7487 25.6768 36.7487 22.8262C36.7445 19.6607 34.624 16.9906 31.7262 16.1565Z" fill="white"/>
<path d="M60.4277 28.7119C60.4277 29.2702 60.2498 29.732 59.8955 30.1001C59.5397 30.4681 59.0831 30.6515 58.5257 30.6515C57.9935 30.6515 57.5425 30.4681 57.1755 30.1001C56.8072 29.7334 56.6237 29.2702 56.6237 28.7119V12.4421C56.6237 11.8851 56.8072 11.4219 57.1755 11.0553C57.5425 10.6886 57.9935 10.5039 58.5257 10.5039C59.0831 10.5039 59.5397 10.6886 59.8955 11.0553C60.2498 11.4233 60.4277 11.8851 60.4277 12.4421V28.7119Z" fill="#277CFB"/>
<path d="M73.2104 31.0308C71.384 31.0308 69.7608 30.7775 68.3406 30.2709C66.9204 29.7643 65.5633 28.9274 64.2691 27.7617C63.9904 27.5588 63.7803 27.3125 63.6417 27.02C63.5016 26.7289 63.433 26.4309 63.433 26.1272C63.433 25.6458 63.6109 25.2148 63.9652 24.8341C64.3196 24.4535 64.7635 24.2646 65.2971 24.2646C65.7019 24.2646 66.0829 24.4045 66.4386 24.683C67.4022 25.5702 68.4106 26.2419 69.4625 26.6982C70.5143 27.1544 71.751 27.3825 73.1726 27.3825C74.1866 27.3825 75.1194 27.2173 75.9695 26.8885C76.8183 26.5596 77.4975 26.116 78.0046 25.5576C78.5116 25.0007 78.7651 24.3541 78.7651 23.6194C78.7651 22.707 78.5046 21.9541 77.9849 21.3579C77.4653 20.7632 76.716 20.2692 75.7398 19.8759C74.7636 19.4827 73.5899 19.1482 72.2202 18.8684C70.9513 18.6403 69.8168 18.324 68.8154 17.9181C67.8126 17.5137 66.9568 17.0001 66.2467 16.3788C65.5366 15.7588 64.9918 15.0171 64.6109 14.1551C64.2299 13.2944 64.0394 12.2924 64.0394 11.1519C64.0394 9.60695 64.4442 8.27609 65.2565 7.16074C66.0675 6.0454 67.1711 5.18335 68.5661 4.576C69.9611 3.96725 71.5339 3.66357 73.2832 3.66357C74.8813 3.66357 76.3771 3.91127 77.7721 4.40527C79.167 4.89927 80.2959 5.564 81.1586 6.40086C81.7679 6.93264 82.0718 7.5036 82.0718 8.11096C82.0718 8.56717 81.8883 8.9912 81.52 9.38444C81.1516 9.77768 80.7273 9.97359 80.2455 9.97359C79.8897 9.97359 79.5858 9.87284 79.3323 9.66992C78.9261 9.2389 78.3813 8.85265 77.6964 8.50979C77.0115 8.16833 76.2818 7.88285 75.5087 7.65474C74.7342 7.42663 73.9933 7.31188 73.2832 7.31188C72.1418 7.31188 71.1656 7.47002 70.3532 7.78769C69.5409 8.10536 68.9204 8.53498 68.4891 9.08076C68.0577 9.62654 67.842 10.2661 67.842 11.0008C67.842 11.8628 68.0899 12.5723 68.5843 13.1293C69.0787 13.6863 69.7692 14.1369 70.6571 14.4784C71.5451 14.8198 72.5591 15.1305 73.7006 15.409C75.0956 15.7126 76.3449 16.0555 77.4485 16.4348C78.5522 16.8154 79.4836 17.3024 80.2455 17.8986C81.006 18.4947 81.59 19.235 81.9962 20.1222C82.401 21.0095 82.6054 22.1122 82.6054 23.4291C82.6054 24.9503 82.1741 26.2797 81.3127 27.4203C80.45 28.5608 79.3155 29.448 77.9079 30.082C76.5017 30.7145 74.9359 31.0308 73.2104 31.0308Z" fill="#BABABA"/>
<path d="M95.0488 31.0309C92.9689 31.0309 91.1496 30.5942 89.5894 29.7196C88.0291 28.845 86.8246 27.6414 85.9759 26.1077C85.1257 24.5753 84.7014 22.819 84.7014 20.843C84.7014 18.6137 85.1509 16.7063 86.0515 15.1222C86.9521 13.538 88.1314 12.3219 89.5894 11.4725C91.0473 10.6244 92.588 10.199 94.2112 10.199C95.4283 10.199 96.602 10.4467 97.7309 10.9407C98.8597 11.4347 99.8556 12.119 100.717 12.9936C101.578 13.8683 102.263 14.8941 102.772 16.0724C103.279 17.2507 103.545 18.5368 103.571 19.9306C103.546 20.4386 103.343 20.8556 102.962 21.1845C102.581 21.5147 102.137 21.6785 101.63 21.6785H86.868L85.9549 18.4472H100.259L99.5362 19.1315V18.1813C99.4606 17.2941 99.1553 16.5146 98.623 15.8429C98.0908 15.1711 97.4368 14.652 96.6636 14.2839C95.8891 13.9173 95.0712 13.7325 94.2098 13.7325C93.4493 13.7325 92.7126 13.8529 92.0025 14.0936C91.2925 14.3343 90.6706 14.7205 90.1384 15.2537C89.6062 15.7855 89.1748 16.4894 88.8442 17.364C88.5151 18.2387 88.3498 19.3218 88.3498 20.6135C88.3498 22.0073 88.6412 23.2235 89.2252 24.2632C89.8078 25.303 90.595 26.1063 91.5838 26.6772C92.5726 27.2482 93.6762 27.5323 94.8933 27.5323C95.8065 27.5323 96.567 27.4371 97.1763 27.2468C97.7855 27.0565 98.2925 26.8228 98.6987 26.5429C99.1034 26.2644 99.4592 25.9985 99.7645 25.7438C100.169 25.5157 100.55 25.4024 100.906 25.4024C101.363 25.4024 101.744 25.5605 102.047 25.8782C102.351 26.1958 102.504 26.5695 102.504 26.9991C102.504 27.5561 102.225 28.0641 101.666 28.5203C100.982 29.1794 100.036 29.763 98.8317 30.2696C97.6286 30.7776 96.3667 31.0309 95.0488 31.0309Z" fill="#BABABA"/>
<path d="M108.63 30.6516C108.071 30.6516 107.615 30.4683 107.26 30.1002C106.905 29.7336 106.728 29.2704 106.728 28.712V12.5948C106.728 12.0378 106.906 11.5746 107.26 11.208C107.615 10.8413 108.071 10.6566 108.63 10.6566C109.162 10.6566 109.612 10.8413 109.98 11.208C110.347 11.576 110.532 12.0378 110.532 12.5948V16.8519L110.151 15.2173C110.354 14.5078 110.665 13.8487 111.084 13.2413C111.503 12.6326 112.003 12.1008 112.587 11.6446C113.169 11.1884 113.823 10.8343 114.546 10.5796C115.269 10.3263 116.024 10.199 116.809 10.199C117.469 10.199 118.039 10.3767 118.521 10.7308C119.003 11.0862 119.244 11.5284 119.244 12.0616C119.244 12.7459 119.066 13.2469 118.711 13.5632C118.356 13.8809 117.963 14.039 117.532 14.039C117.151 14.039 116.784 13.9564 116.428 13.7913C116.073 13.6262 115.654 13.5436 115.174 13.5436C114.641 13.5436 114.095 13.6835 113.538 13.962C112.979 14.2419 112.472 14.6534 112.017 15.1977C111.56 15.7435 111.199 16.383 110.933 17.1177C110.667 17.8524 110.533 18.6767 110.533 19.5891V28.712C110.533 29.2704 110.349 29.7322 109.982 30.1002C109.613 30.4669 109.164 30.6516 108.63 30.6516Z" fill="#BABABA"/>
<path d="M124.038 10.4661C124.419 10.4661 124.78 10.5682 125.122 10.7697C125.465 10.9727 125.711 11.2777 125.864 11.6822L131.838 25.4805L131.115 25.822L137.164 11.7185C137.518 10.8817 138.09 10.4773 138.875 10.5024C139.382 10.5024 139.808 10.6606 140.15 10.9783C140.493 11.2959 140.664 11.7074 140.664 12.2139C140.664 12.3665 140.639 12.5246 140.588 12.6898C140.538 12.8549 140.475 13.013 140.398 13.1656L133.169 29.4353C132.84 30.1952 132.294 30.601 131.534 30.6514C131.153 30.7018 130.779 30.6206 130.412 30.4037C130.043 30.1882 129.759 29.8649 129.556 29.4339L122.365 13.1642C122.315 13.0634 122.263 12.9305 122.213 12.7653C122.161 12.6002 122.137 12.4043 122.137 12.1762C122.137 11.7955 122.308 11.4163 122.651 11.0356C122.991 10.655 123.454 10.4661 124.038 10.4661Z" fill="#BABABA"/>
<path d="M147.169 28.7119C147.169 29.2702 146.991 29.732 146.637 30.1001C146.281 30.4681 145.824 30.6515 145.267 30.6515C144.735 30.6515 144.284 30.4681 143.917 30.1001C143.548 29.7334 143.365 29.2702 143.365 28.7119V12.4421C143.365 11.8851 143.548 11.4219 143.917 11.0553C144.284 10.6886 144.735 10.5039 145.267 10.5039C145.824 10.5039 146.281 10.6886 146.637 11.0553C146.991 11.4233 147.169 11.8851 147.169 12.4421V28.7119Z" fill="#BABABA"/>
<path d="M160.066 10.199C161.436 10.199 162.646 10.3445 163.699 10.6356C164.751 10.9267 165.583 11.3325 166.191 11.8517C166.8 12.3709 167.104 12.9726 167.104 13.657C167.104 14.088 166.971 14.4868 166.705 14.8549C166.439 15.2229 166.065 15.4062 165.583 15.4062C165.202 15.4062 164.891 15.3433 164.65 15.2159C164.409 15.09 164.186 14.9374 163.985 14.7597C163.782 14.582 163.528 14.4057 163.224 14.2279C162.946 14.0754 162.532 13.9494 161.988 13.8473C161.441 13.7465 160.954 13.6947 160.523 13.6947C159.178 13.6947 158.017 13.9984 157.042 14.6072C156.066 15.2159 155.304 16.0388 154.759 17.0786C154.213 18.1183 153.941 19.2967 153.941 20.6135C153.941 21.9318 154.213 23.1101 154.759 24.1485C155.304 25.1882 156.053 26.0111 157.004 26.6199C157.955 27.2286 159.065 27.5323 160.334 27.5323C161.094 27.5323 161.721 27.4749 162.217 27.3616C162.712 27.2482 163.123 27.1013 163.454 26.9249C163.859 26.6968 164.189 26.4631 164.443 26.221C164.696 25.9803 165.065 25.86 165.546 25.86C166.104 25.86 166.53 26.0307 166.821 26.3736C167.112 26.715 167.258 27.1404 167.258 27.647C167.258 28.2054 166.922 28.7442 166.25 29.2634C165.577 29.7826 164.684 30.208 163.567 30.5369C162.451 30.8657 161.221 31.0309 159.877 31.0309C157.898 31.0309 156.179 30.5746 154.721 29.6622C153.262 28.7498 152.135 27.5085 151.335 25.9369C150.536 24.3654 150.136 22.5923 150.136 20.6149C150.136 18.6137 150.555 16.8323 151.391 15.2733C152.228 13.7143 153.394 12.4786 154.891 11.5676C156.388 10.6552 158.112 10.199 160.066 10.199Z" fill="#BABABA"/>
<path d="M179.126 31.0309C177.046 31.0309 175.227 30.5942 173.667 29.7196C172.107 28.845 170.902 27.6414 170.053 26.1077C169.203 24.5753 168.779 22.819 168.779 20.843C168.779 18.6137 169.228 16.7063 170.129 15.1222C171.03 13.538 172.209 12.3219 173.667 11.4725C175.125 10.6244 176.666 10.199 178.289 10.199C179.506 10.199 180.68 10.4467 181.808 10.9407C182.937 11.4347 183.933 12.119 184.794 12.9936C185.656 13.8683 186.341 14.8941 186.849 16.0724C187.356 17.2507 187.622 18.5368 187.649 19.9306C187.624 20.4386 187.421 20.8556 187.04 21.1845C186.659 21.5147 186.215 21.6785 185.708 21.6785H170.946L170.032 18.4472H184.336L183.614 19.1315V18.1813C183.538 17.2941 183.233 16.5146 182.701 15.8429C182.168 15.1711 181.514 14.652 180.741 14.2839C179.967 13.9173 179.149 13.7325 178.287 13.7325C177.527 13.7325 176.79 13.8529 176.08 14.0936C175.37 14.3343 174.748 14.7205 174.216 15.2537C173.684 15.7855 173.252 16.4894 172.922 17.364C172.593 18.2387 172.427 19.3218 172.427 20.6135C172.427 22.0073 172.719 23.2235 173.303 24.2632C173.885 25.303 174.672 26.1063 175.661 26.6772C176.65 27.2482 177.754 27.5323 178.971 27.5323C179.884 27.5323 180.645 27.4371 181.254 27.2468C181.863 27.0565 182.37 26.8228 182.776 26.5429C183.181 26.2644 183.537 25.9985 183.842 25.7438C184.247 25.5157 184.628 25.4024 184.984 25.4024C185.44 25.4024 185.821 25.5605 186.125 25.8782C186.429 26.1958 186.582 26.5695 186.582 26.9991C186.582 27.5561 186.303 28.0641 185.744 28.5203C185.059 29.1794 184.114 29.763 182.909 30.2696C181.706 30.7776 180.444 31.0309 179.126 31.0309Z" fill="#BABABA"/>
<path d="M127.896 10.5039L131.548 18.9383L135.165 10.5039H127.896Z" fill="#277CFB"/>
<path d="M58.5252 7.85897C59.574 7.85897 60.4243 7.00937 60.4243 5.96134C60.4243 4.91332 59.574 4.06372 58.5252 4.06372C57.4763 4.06372 56.626 4.91332 56.626 5.96134C56.626 7.00937 57.4763 7.85897 58.5252 7.85897Z" fill="#277CFB"/>
<path d="M145.268 7.85897C146.316 7.85897 147.167 7.00937 147.167 5.96134C147.167 4.91332 146.316 4.06372 145.268 4.06372C144.219 4.06372 143.368 4.91332 143.368 5.96134C143.368 7.00937 144.219 7.85897 145.268 7.85897Z" fill="#BABABA"/>
<path d="M179.617 39.7953C179.521 39.7799 179.423 39.7687 179.327 39.7477C179.099 39.7001 178.892 39.6036 178.701 39.4706C178.459 39.2999 178.267 39.0816 178.133 38.8171C177.967 38.4924 177.909 38.1496 177.953 37.7885C177.997 37.4387 178.133 37.128 178.362 36.8607C178.435 36.7753 178.518 36.6984 178.602 36.6256C178.682 36.557 178.777 36.5444 178.874 36.5864C178.969 36.627 179.022 36.7012 179.032 36.8033C179.039 36.8817 179.014 36.9516 178.959 37.0076C178.889 37.079 178.811 37.1448 178.747 37.2231C178.516 37.51 178.427 37.8403 178.484 38.2055C178.565 38.7247 178.959 39.1376 179.472 39.2439C179.97 39.3475 180.495 39.1348 180.773 38.7065C181.025 38.3161 181.056 37.9047 180.867 37.4792C180.801 37.3323 180.704 37.2035 180.585 37.0944C180.543 37.0552 180.498 37.0188 180.466 36.974C180.388 36.8635 180.407 36.7207 180.504 36.634C180.603 36.5444 180.746 36.5416 180.851 36.627C181.002 36.7501 181.131 36.8943 181.236 37.0594C181.46 37.4163 181.549 37.8067 181.501 38.2251C181.418 38.9444 180.9 39.5434 180.197 39.7337C180.091 39.7631 179.979 39.7729 179.869 39.7911C179.858 39.7925 179.847 39.7953 179.836 39.7981C179.763 39.7953 179.69 39.7953 179.617 39.7953Z" fill="#277CFB" stroke="#277CFB" stroke-width="0.142546" stroke-miterlimit="10"/>
<path d="M179.463 36.6997C179.463 36.4996 179.462 36.2995 179.463 36.0994C179.464 35.9244 179.613 35.8013 179.778 35.8349C179.904 35.8601 179.989 35.9678 179.989 36.1078C179.989 36.4254 179.989 36.7431 179.989 37.0608C179.989 37.1405 179.99 37.2203 179.989 37.3015C179.986 37.4148 179.933 37.5002 179.83 37.545C179.73 37.587 179.634 37.5716 179.552 37.4988C179.491 37.4442 179.464 37.3729 179.464 37.2917C179.463 37.0944 179.463 36.897 179.463 36.6997Z" fill="#277CFB" stroke="#277CFB" stroke-width="0.142546" stroke-miterlimit="10"/>
<path d="M108.871 34.4971C109.14 34.4971 109.388 34.5698 109.616 34.714C109.844 34.8581 110.026 35.0554 110.164 35.3031C110.301 35.5508 110.37 35.8307 110.37 36.14C110.37 36.4493 110.301 36.7292 110.164 36.9797C110.026 37.2302 109.844 37.4303 109.616 37.58C109.388 37.7298 109.138 37.8039 108.871 37.8039H107.403L107.463 37.6822V39.4315C107.463 39.5434 107.428 39.6358 107.361 39.7085C107.293 39.7827 107.203 39.8191 107.091 39.8191C106.984 39.8191 106.896 39.7827 106.829 39.7085C106.76 39.6358 106.727 39.542 106.727 39.4315V34.8847C106.727 34.7728 106.765 34.6804 106.842 34.6076C106.917 34.5349 107.01 34.4971 107.115 34.4971H108.871ZM108.871 37.0748C109.003 37.0748 109.123 37.0314 109.232 36.9461C109.342 36.8593 109.43 36.746 109.498 36.6046C109.567 36.4633 109.601 36.3079 109.601 36.1414C109.601 35.9735 109.566 35.8223 109.498 35.6852C109.43 35.548 109.342 35.4375 109.232 35.3549C109.123 35.271 109.003 35.229 108.871 35.229H107.388L107.463 35.1156V37.1756L107.395 37.0762H108.871V37.0748Z" fill="#575757"/>
<path d="M114.753 37.8207C114.753 38.2266 114.664 38.5848 114.483 38.8969C114.304 39.209 114.061 39.4539 113.756 39.6302C113.451 39.8065 113.109 39.8961 112.73 39.8961C112.354 39.8961 112.014 39.8079 111.706 39.6302C111.398 39.4525 111.155 39.2076 110.975 38.8969C110.795 38.5848 110.704 38.2266 110.704 37.8207C110.704 37.4107 110.794 37.0496 110.975 36.7376C111.155 36.4255 111.398 36.1806 111.706 36.0001C112.012 35.8209 112.354 35.73 112.73 35.73C113.11 35.73 113.452 35.8195 113.756 36.0001C114.06 36.1806 114.302 36.4255 114.483 36.7376C114.664 37.0482 114.753 37.4093 114.753 37.8207ZM113.993 37.8207C113.993 37.5422 113.937 37.3001 113.825 37.0944C113.713 36.8887 113.563 36.7264 113.372 36.6074C113.182 36.4885 112.968 36.4283 112.73 36.4283C112.496 36.4283 112.284 36.4885 112.094 36.6074C111.903 36.7264 111.752 36.8887 111.637 37.0944C111.524 37.3001 111.466 37.5422 111.466 37.8207C111.466 38.0894 111.524 38.3273 111.637 38.5358C111.752 38.7443 111.903 38.9053 112.094 39.0228C112.284 39.139 112.496 39.1978 112.73 39.1978C112.968 39.1978 113.182 39.139 113.372 39.0228C113.563 38.9067 113.714 38.7443 113.825 38.5358C113.937 38.3273 113.993 38.0894 113.993 37.8207Z" fill="#575757"/>
<path d="M120.048 35.783C120.145 35.783 120.229 35.8193 120.303 35.8935C120.377 35.9677 120.414 36.0614 120.414 36.179C120.414 36.2042 120.411 36.2294 120.407 36.2546C120.401 36.2798 120.394 36.3021 120.384 36.3231L119.22 39.5768C119.19 39.6636 119.136 39.7279 119.061 39.7713C118.985 39.8147 118.905 39.8315 118.825 39.8203C118.678 39.8105 118.569 39.7293 118.498 39.5768L117.638 37.2957L117.813 37.3111L117.021 39.5768C116.95 39.7293 116.841 39.8105 116.694 39.8203C116.618 39.8301 116.54 39.8147 116.461 39.7713C116.383 39.7279 116.328 39.6636 116.297 39.5768L115.125 36.3231C115.104 36.277 115.094 36.2294 115.094 36.179C115.094 36.0726 115.128 35.9803 115.197 35.9019C115.265 35.8235 115.358 35.7844 115.474 35.7844C115.555 35.7844 115.627 35.8054 115.691 35.8459C115.754 35.8865 115.799 35.9467 115.824 36.0279L116.799 38.7721L116.624 38.7567L117.415 36.6814C117.481 36.5247 117.597 36.4463 117.765 36.4463C117.856 36.4463 117.928 36.4673 117.978 36.5065C118.029 36.547 118.069 36.6058 118.1 36.6814L118.907 38.7651L118.701 38.7875L119.683 36.0279C119.734 35.8641 119.855 35.783 120.048 35.783Z" fill="#575757"/>
<path d="M122.825 39.8961C122.409 39.8961 122.045 39.8093 121.733 39.6344C121.421 39.4595 121.18 39.2188 121.01 38.9123C120.841 38.6058 120.755 38.2546 120.755 37.8599C120.755 37.4135 120.845 37.0329 121.026 36.7152C121.206 36.3989 121.442 36.1554 121.733 35.9847C122.024 35.8153 122.332 35.73 122.657 35.73C122.901 35.73 123.135 35.779 123.362 35.8783C123.587 35.9777 123.786 36.1134 123.96 36.2884C124.132 36.4633 124.269 36.669 124.37 36.9041C124.471 37.1392 124.524 37.3967 124.53 37.6752C124.524 37.7759 124.484 37.8599 124.408 37.9257C124.332 37.9915 124.243 38.025 124.142 38.025H121.19L121.007 37.3785H123.869L123.725 37.5157V37.3253C123.709 37.1476 123.649 36.9923 123.543 36.8579C123.436 36.7236 123.306 36.62 123.15 36.5458C122.995 36.4731 122.832 36.4353 122.66 36.4353C122.508 36.4353 122.36 36.4591 122.219 36.5081C122.078 36.5556 121.953 36.634 121.846 36.7404C121.74 36.8467 121.653 36.9881 121.587 37.1616C121.521 37.3351 121.488 37.5534 121.488 37.8109C121.488 38.0894 121.547 38.3329 121.663 38.5414C121.779 38.75 121.936 38.9095 122.135 39.0242C122.332 39.139 122.554 39.195 122.797 39.195C122.979 39.195 123.132 39.1754 123.254 39.1376C123.376 39.0998 123.477 39.0522 123.558 38.9963C123.639 38.9403 123.711 38.8871 123.771 38.8367C123.852 38.7905 123.928 38.7681 123.999 38.7681C124.09 38.7681 124.167 38.8003 124.227 38.8633C124.289 38.9263 124.318 39.0018 124.318 39.0872C124.318 39.1992 124.262 39.2999 124.15 39.3909C124.013 39.5224 123.824 39.6386 123.583 39.7407C123.342 39.8443 123.089 39.8961 122.825 39.8961Z" fill="#575757"/>
<path d="M125.542 39.819C125.43 39.819 125.339 39.7827 125.269 39.7085C125.197 39.6357 125.162 39.542 125.162 39.4314V36.2071C125.162 36.0952 125.197 36.0028 125.269 35.93C125.34 35.8573 125.431 35.8195 125.542 35.8195C125.648 35.8195 125.738 35.8559 125.812 35.93C125.886 36.0042 125.923 36.0966 125.923 36.2071V37.058L125.847 36.7305C125.888 36.5892 125.949 36.4562 126.033 36.3359C126.117 36.2141 126.217 36.1078 126.335 36.0168C126.451 35.9258 126.582 35.8545 126.727 35.8041C126.871 35.7537 127.022 35.7285 127.179 35.7285C127.311 35.7285 127.426 35.7635 127.522 35.8349C127.619 35.9062 127.667 35.9944 127.667 36.1008C127.667 36.2379 127.632 36.3373 127.56 36.4016C127.489 36.4646 127.41 36.4968 127.325 36.4968C127.249 36.4968 127.175 36.48 127.103 36.4478C127.032 36.4142 126.948 36.3988 126.853 36.3988C126.746 36.3988 126.637 36.4268 126.525 36.4828C126.413 36.5388 126.312 36.6214 126.221 36.7305C126.13 36.8397 126.057 36.967 126.004 37.114C125.951 37.2609 125.924 37.426 125.924 37.608V39.4328C125.924 39.5448 125.888 39.6371 125.814 39.7099C125.739 39.7827 125.65 39.819 125.542 39.819Z" fill="#575757"/>
<path d="M129.81 39.8961C129.394 39.8961 129.03 39.8093 128.718 39.6344C128.406 39.4595 128.165 39.2188 127.995 38.9123C127.826 38.6058 127.74 38.2546 127.74 37.8599C127.74 37.4135 127.83 37.0329 128.011 36.7152C128.191 36.3989 128.427 36.1554 128.718 35.9847C129.009 35.8153 129.317 35.73 129.642 35.73C129.886 35.73 130.12 35.779 130.347 35.8783C130.572 35.9777 130.771 36.1134 130.945 36.2884C131.117 36.4633 131.254 36.669 131.355 36.9041C131.456 37.1392 131.509 37.3967 131.515 37.6752C131.509 37.7759 131.47 37.8599 131.393 37.9257C131.317 37.9915 131.228 38.025 131.127 38.025H128.175L127.993 37.3785H130.854L130.71 37.5157V37.3253C130.694 37.1476 130.634 36.9923 130.528 36.8579C130.421 36.7236 130.291 36.62 130.135 36.5458C129.98 36.4731 129.817 36.4353 129.645 36.4353C129.493 36.4353 129.345 36.4591 129.204 36.5081C129.063 36.5556 128.938 36.634 128.831 36.7404C128.725 36.8467 128.638 36.9881 128.572 37.1616C128.507 37.3351 128.473 37.5534 128.473 37.8109C128.473 38.0894 128.532 38.3329 128.648 38.5414C128.764 38.75 128.921 38.9095 129.12 39.0242C129.317 39.139 129.539 39.195 129.782 39.195C129.965 39.195 130.117 39.1754 130.239 39.1376C130.361 39.0998 130.462 39.0522 130.543 38.9963C130.624 38.9403 130.696 38.8871 130.756 38.8367C130.837 38.7905 130.913 38.7681 130.984 38.7681C131.075 38.7681 131.152 38.8003 131.212 38.8633C131.274 38.9263 131.303 39.0018 131.303 39.0872C131.303 39.1992 131.247 39.2999 131.135 39.3909C130.998 39.5224 130.809 39.6386 130.568 39.7407C130.327 39.8443 130.075 39.8961 129.81 39.8961Z" fill="#575757"/>
<path d="M135.396 34.1934C135.502 34.1934 135.592 34.2283 135.666 34.2997C135.739 34.3711 135.777 34.4649 135.777 34.581V39.4314C135.777 39.5434 135.74 39.6357 135.666 39.7085C135.592 39.7827 135.502 39.8191 135.396 39.8191C135.284 39.8191 135.193 39.7827 135.121 39.7085C135.05 39.6357 135.015 39.542 135.015 39.4314V38.8842L135.168 38.8912C135.168 38.9822 135.131 39.0858 135.057 39.1991C134.983 39.3125 134.883 39.423 134.756 39.5294C134.628 39.6357 134.48 39.7239 134.308 39.7911C134.135 39.8596 133.95 39.8932 133.752 39.8932C133.407 39.8932 133.093 39.8037 132.812 39.6231C132.53 39.4426 132.309 39.1977 132.147 38.8856C131.984 38.5736 131.903 38.2153 131.903 37.8095C131.903 37.4036 131.984 37.0454 132.147 36.7333C132.309 36.4213 132.527 36.1763 132.805 35.9958C133.081 35.8167 133.389 35.7257 133.729 35.7257C133.942 35.7257 134.141 35.7607 134.326 35.8321C134.511 35.9035 134.672 35.9944 134.809 36.1064C134.946 36.2183 135.054 36.3359 135.133 36.4604C135.211 36.585 135.25 36.7025 135.25 36.8145L135.015 36.8369V34.5782C135.015 34.4662 135.05 34.3739 135.121 34.3011C135.193 34.2297 135.284 34.1934 135.396 34.1934ZM133.844 39.1963C134.082 39.1963 134.292 39.1361 134.471 39.0144C134.652 38.8926 134.792 38.7275 134.894 38.5204C134.995 38.3133 135.047 38.0768 135.047 37.8137C135.047 37.5506 134.997 37.3141 134.894 37.107C134.794 36.8999 134.652 36.7347 134.471 36.613C134.292 36.4912 134.082 36.431 133.844 36.431C133.61 36.431 133.403 36.4912 133.221 36.613C133.039 36.7347 132.896 36.8999 132.795 37.107C132.694 37.3155 132.642 37.5506 132.642 37.8137C132.642 38.0768 132.693 38.3133 132.795 38.5204C132.896 38.7289 133.039 38.8926 133.221 39.0144C133.401 39.1347 133.61 39.1963 133.844 39.1963Z" fill="#575757"/>
<path d="M140.586 35.7299C140.941 35.7299 141.256 35.8181 141.532 35.9958C141.808 36.1736 142.028 36.4184 142.191 36.7291C142.353 37.0412 142.434 37.3994 142.434 37.8053C142.434 38.2111 142.353 38.5708 142.191 38.8842C142.028 39.1991 141.81 39.4454 141.537 39.6259C141.263 39.8065 140.954 39.896 140.608 39.896C140.415 39.896 140.233 39.8638 140.06 39.8009C139.888 39.7379 139.735 39.6567 139.604 39.5574C139.472 39.458 139.364 39.3531 139.28 39.2425C139.196 39.1305 139.144 39.027 139.125 38.9304L139.331 38.8311V39.493C139.331 39.5993 139.294 39.6889 139.22 39.7631C139.146 39.8358 139.056 39.8736 138.95 39.8736C138.838 39.8736 138.747 39.8387 138.677 39.7673C138.605 39.6959 138.57 39.6049 138.57 39.493V34.581C138.57 34.469 138.605 34.3767 138.677 34.3039C138.748 34.2311 138.839 34.1934 138.95 34.1934C139.056 34.1934 139.146 34.2297 139.22 34.3039C139.294 34.3767 139.331 34.4704 139.331 34.581V36.7179L139.209 36.6494C139.224 36.5528 139.272 36.4534 139.353 36.3485C139.434 36.2449 139.537 36.1442 139.661 36.0476C139.786 35.951 139.927 35.8741 140.087 35.8153C140.247 35.7579 140.413 35.7299 140.586 35.7299ZM140.502 36.4282C140.258 36.4282 140.046 36.4884 139.866 36.6102C139.685 36.7319 139.545 36.8957 139.443 37.1C139.342 37.3057 139.29 37.5394 139.29 37.8039C139.29 38.067 139.34 38.3049 139.443 38.5148C139.545 38.7247 139.685 38.8912 139.866 39.013C140.045 39.1347 140.258 39.1949 140.502 39.1949C140.74 39.1949 140.948 39.1347 141.125 39.013C141.303 38.8912 141.443 38.7247 141.546 38.5106C141.65 38.2979 141.702 38.0614 141.702 37.8039C141.702 37.5408 141.65 37.3057 141.546 37.1C141.443 36.8943 141.301 36.7305 141.125 36.6102C140.948 36.4898 140.74 36.4282 140.502 36.4282Z" fill="#575757"/>
<path d="M146.041 35.7903C146.154 35.7903 146.245 35.8267 146.316 35.9008C146.387 35.975 146.422 36.0674 146.422 36.1779V39.447C146.422 39.8934 146.337 40.2559 146.168 40.5343C145.998 40.8128 145.77 41.0171 145.483 41.1459C145.196 41.2746 144.872 41.3404 144.512 41.3404C144.33 41.3404 144.147 41.3236 143.964 41.2914C143.782 41.2578 143.632 41.2117 143.516 41.1515C143.394 41.0955 143.308 41.0269 143.257 40.9458C143.207 40.8646 143.198 40.7764 143.235 40.6799C143.27 40.5581 143.331 40.4756 143.417 40.4322C143.504 40.3888 143.592 40.3846 143.683 40.421C143.77 40.456 143.883 40.5022 144.026 40.5581C144.168 40.6141 144.33 40.6421 144.513 40.6421C144.761 40.6421 144.973 40.6015 145.145 40.5204C145.317 40.4392 145.449 40.3118 145.537 40.1397C145.626 39.9676 145.67 39.7437 145.67 39.4708V38.946L145.792 39.1279C145.711 39.2959 145.605 39.4344 145.473 39.5464C145.341 39.6583 145.184 39.7437 145.005 39.8052C144.826 39.8668 144.625 39.8962 144.408 39.8962C144.13 39.8962 143.89 39.8346 143.69 39.7101C143.49 39.5855 143.336 39.4134 143.229 39.1937C143.123 38.9726 143.069 38.7207 143.069 38.4366V36.1779C143.069 36.066 143.104 35.9736 143.176 35.9008C143.247 35.8281 143.338 35.7903 143.449 35.7903C143.555 35.7903 143.645 35.8267 143.719 35.9008C143.794 35.975 143.83 36.0674 143.83 36.1779V38.2309C143.83 38.5653 143.903 38.8103 144.051 38.9642C144.198 39.1195 144.417 39.1965 144.705 39.1965C144.899 39.1965 145.065 39.1559 145.208 39.0747C145.35 38.9936 145.462 38.8802 145.543 38.7361C145.624 38.5919 145.665 38.4226 145.665 38.2309V36.1779C145.665 36.066 145.701 35.9736 145.775 35.9008C145.845 35.8267 145.935 35.7903 146.041 35.7903Z" fill="#575757"/>
<path d="M148.985 39.1963C148.939 39.1249 148.92 39.0424 148.925 38.9486C148.929 38.8548 148.984 38.7751 149.085 38.7093C149.156 38.6631 149.231 38.6449 149.309 38.6519C149.387 38.6589 149.462 38.6995 149.533 38.7695C149.675 38.9262 149.834 39.0508 150.009 39.1417C150.184 39.2327 150.396 39.2789 150.645 39.2789C150.746 39.2733 150.851 39.2579 150.957 39.2299C151.064 39.2019 151.155 39.1515 151.232 39.0774C151.308 39.0046 151.345 38.8968 151.345 38.7541C151.345 38.6267 151.305 38.526 151.224 38.4504C151.142 38.3748 151.036 38.3119 150.904 38.2643C150.773 38.2167 150.631 38.1719 150.478 38.1313C150.316 38.0852 150.152 38.0348 149.988 37.9788C149.823 37.9228 149.675 37.8515 149.543 37.7619C149.411 37.6737 149.303 37.5576 149.219 37.4162C149.135 37.2749 149.093 37.1 149.093 36.8914C149.093 36.6535 149.161 36.4478 149.295 36.2757C149.429 36.1036 149.605 35.9692 149.82 35.8727C150.036 35.7761 150.27 35.7285 150.525 35.7285C150.672 35.7285 150.827 35.7481 150.988 35.7859C151.151 35.8237 151.308 35.8839 151.46 35.965C151.613 36.0462 151.745 36.1525 151.855 36.2841C151.906 36.3499 151.935 36.4282 151.942 36.5192C151.949 36.6102 151.908 36.6913 151.816 36.7627C151.756 36.8131 151.682 36.8355 151.595 36.8313C151.508 36.8257 151.438 36.7991 151.382 36.7473C151.285 36.6256 151.161 36.5304 151.009 36.4618C150.857 36.3933 150.684 36.3597 150.492 36.3597C150.396 36.3597 150.296 36.3737 150.191 36.4016C150.088 36.4296 149.999 36.4786 149.928 36.55C149.857 36.6214 149.822 36.7249 149.822 36.8621C149.822 36.9894 149.864 37.0902 149.948 37.1657C150.032 37.2413 150.142 37.3057 150.278 37.3561C150.415 37.4064 150.564 37.4526 150.726 37.4932C150.883 37.5338 151.039 37.5814 151.194 37.6373C151.348 37.6933 151.488 37.7661 151.613 37.8542C151.738 37.9424 151.838 38.0572 151.917 38.1957C151.995 38.3357 152.035 38.5106 152.035 38.7247C152.035 38.9724 151.962 39.1851 151.817 39.36C151.673 39.535 151.49 39.6679 151.27 39.7589C151.049 39.8498 150.817 39.896 150.574 39.896C150.285 39.896 149.997 39.8442 149.71 39.7407C149.422 39.6371 149.183 39.4552 148.985 39.1963Z" fill="#575757"/>
<path d="M154.495 39.8961C154.079 39.8961 153.715 39.8093 153.403 39.6344C153.091 39.4595 152.85 39.2188 152.68 38.9123C152.511 38.6058 152.425 38.2546 152.425 37.8599C152.425 37.4135 152.515 37.0329 152.696 36.7152C152.876 36.3989 153.112 36.1554 153.403 35.9847C153.694 35.8153 154.002 35.73 154.327 35.73C154.571 35.73 154.805 35.779 155.032 35.8783C155.257 35.9777 155.456 36.1134 155.63 36.2884C155.802 36.4633 155.939 36.669 156.04 36.9041C156.141 37.1392 156.194 37.3967 156.2 37.6752C156.194 37.7759 156.155 37.8599 156.078 37.9257C156.002 37.9915 155.913 38.025 155.812 38.025H152.859L152.677 37.3785H155.539L155.395 37.5157V37.3253C155.379 37.1476 155.319 36.9923 155.212 36.8579C155.106 36.7236 154.976 36.62 154.82 36.5458C154.665 36.4731 154.502 36.4353 154.33 36.4353C154.177 36.4353 154.03 36.4591 153.889 36.5081C153.747 36.5556 153.623 36.634 153.516 36.7404C153.41 36.8467 153.323 36.9881 153.257 37.1616C153.191 37.3351 153.158 37.5534 153.158 37.8109C153.158 38.0894 153.217 38.3329 153.333 38.5414C153.449 38.75 153.606 38.9095 153.805 39.0242C154.002 39.139 154.224 39.195 154.467 39.195C154.649 39.195 154.802 39.1754 154.924 39.1376C155.046 39.0998 155.147 39.0522 155.228 38.9963C155.309 38.9403 155.381 38.8871 155.441 38.8367C155.522 38.7905 155.598 38.7681 155.669 38.7681C155.76 38.7681 155.837 38.8003 155.897 38.8633C155.959 38.9263 155.988 39.0018 155.988 39.0872C155.988 39.1992 155.932 39.2999 155.82 39.3909C155.683 39.5224 155.494 39.6386 155.253 39.7407C155.012 39.8443 154.759 39.8961 154.495 39.8961Z" fill="#575757"/>
<path d="M157.211 39.819C157.099 39.819 157.008 39.7827 156.938 39.7085C156.866 39.6357 156.831 39.542 156.831 39.4314V36.2071C156.831 36.0952 156.866 36.0028 156.938 35.93C157.009 35.8573 157.1 35.8195 157.211 35.8195C157.317 35.8195 157.407 35.8559 157.481 35.93C157.555 36.0042 157.592 36.0966 157.592 36.2071V37.058L157.516 36.7305C157.557 36.5892 157.618 36.4562 157.702 36.3359C157.786 36.2141 157.886 36.1078 158.003 36.0168C158.12 35.9258 158.251 35.8545 158.396 35.8041C158.54 35.7537 158.691 35.7285 158.848 35.7285C158.98 35.7285 159.094 35.7635 159.191 35.8349C159.288 35.9062 159.335 35.9944 159.335 36.1008C159.335 36.2379 159.3 36.3373 159.229 36.4016C159.157 36.4646 159.079 36.4968 158.994 36.4968C158.918 36.4968 158.844 36.48 158.772 36.4478C158.701 36.4142 158.617 36.3988 158.522 36.3988C158.415 36.3988 158.306 36.4268 158.194 36.4828C158.082 36.5388 157.981 36.6214 157.89 36.7305C157.799 36.8397 157.726 36.967 157.673 37.114C157.62 37.2609 157.593 37.426 157.593 37.608V39.4328C157.593 39.5448 157.557 39.6371 157.482 39.7099C157.407 39.7827 157.317 39.819 157.211 39.819Z" fill="#575757"/>
<path d="M160.294 35.783C160.369 35.783 160.442 35.804 160.511 35.8445C160.58 35.8851 160.629 35.9453 160.659 36.0265L161.854 38.7861L161.71 38.8547L162.92 36.0335C162.991 35.8655 163.105 35.7858 163.262 35.79C163.363 35.79 163.448 35.8221 163.517 35.8851C163.585 35.9481 163.619 36.0307 163.619 36.1328C163.619 36.1636 163.613 36.1944 163.603 36.228C163.594 36.2616 163.581 36.2923 163.566 36.3231L162.12 39.5768C162.054 39.7293 161.945 39.8105 161.792 39.8203C161.717 39.8301 161.641 39.8147 161.568 39.7713C161.494 39.7279 161.438 39.6636 161.398 39.5768L159.959 36.3231C159.949 36.3035 159.94 36.277 159.928 36.2434C159.919 36.2112 159.913 36.1706 159.913 36.1258C159.913 36.0503 159.947 35.9733 160.015 35.8977C160.084 35.8207 160.176 35.783 160.294 35.783Z" fill="#575757"/>
<path d="M164.531 35.2891C164.384 35.2891 164.278 35.2626 164.212 35.2094C164.146 35.1562 164.112 35.0666 164.112 34.9393V34.8175C164.112 34.6916 164.147 34.602 164.219 34.5516C164.29 34.5013 164.397 34.4761 164.538 34.4761C164.69 34.4761 164.798 34.5027 164.865 34.5558C164.931 34.609 164.965 34.6972 164.965 34.8175V34.9393C164.965 35.0708 164.93 35.1618 164.863 35.2136C164.793 35.2625 164.682 35.2891 164.531 35.2891ZM164.919 39.4314C164.919 39.5434 164.884 39.6358 164.812 39.7085C164.741 39.7827 164.65 39.8191 164.539 39.8191C164.433 39.8191 164.343 39.7827 164.269 39.7085C164.195 39.6358 164.159 39.542 164.159 39.4314V36.1778C164.159 36.0658 164.195 35.9735 164.269 35.9007C164.343 35.8279 164.433 35.7901 164.539 35.7901C164.651 35.7901 164.742 35.8265 164.812 35.9007C164.884 35.9749 164.919 36.0672 164.919 36.1778V39.4314Z" fill="#575757"/>
<path d="M167.499 35.73C167.772 35.73 168.015 35.7594 168.226 35.8167C168.436 35.8755 168.603 35.9567 168.725 36.0603C168.846 36.1638 168.907 36.2842 168.907 36.4213C168.907 36.5081 168.88 36.5878 168.827 36.6606C168.774 36.7348 168.698 36.7712 168.603 36.7712C168.527 36.7712 168.464 36.7586 168.417 36.7334C168.369 36.7082 168.324 36.6774 168.283 36.6424C168.243 36.6074 168.192 36.571 168.131 36.5361C168.075 36.5053 167.992 36.4801 167.883 36.4605C167.774 36.4409 167.676 36.4297 167.59 36.4297C167.321 36.4297 167.089 36.4899 166.894 36.6116C166.698 36.7334 166.547 36.8985 166.437 37.1056C166.328 37.3141 166.274 37.5492 166.274 37.8123C166.274 38.0754 166.328 38.3119 166.437 38.519C166.547 38.7276 166.697 38.8913 166.887 39.013C167.078 39.1348 167.299 39.195 167.552 39.195C167.705 39.195 167.83 39.1838 167.929 39.1614C168.029 39.139 168.11 39.1096 168.177 39.0746C168.258 39.0284 168.324 38.9823 168.374 38.9347C168.425 38.8871 168.499 38.8619 168.596 38.8619C168.708 38.8619 168.792 38.8955 168.851 38.9641C168.91 39.0326 168.938 39.118 168.938 39.2188C168.938 39.3307 168.87 39.4385 168.736 39.542C168.601 39.6456 168.422 39.7309 168.199 39.7967C167.977 39.8625 167.73 39.8961 167.461 39.8961C167.065 39.8961 166.722 39.8051 166.43 39.6218C166.139 39.4399 165.914 39.1908 165.753 38.8773C165.593 38.5624 165.513 38.2084 165.513 37.8123C165.513 37.4121 165.597 37.0566 165.764 36.7446C165.93 36.4325 166.164 36.1862 166.464 36.0029C166.762 35.8209 167.108 35.73 167.499 35.73Z" fill="#575757"/>
<path d="M171.309 39.8961C170.894 39.8961 170.529 39.8093 170.217 39.6344C169.905 39.4595 169.664 39.2188 169.494 38.9123C169.325 38.6058 169.239 38.2546 169.239 37.8599C169.239 37.4135 169.329 37.0329 169.51 36.7152C169.69 36.3989 169.926 36.1554 170.217 35.9847C170.508 35.8153 170.816 35.73 171.141 35.73C171.385 35.73 171.619 35.779 171.846 35.8783C172.071 35.9777 172.27 36.1134 172.444 36.2884C172.616 36.4633 172.753 36.669 172.854 36.9041C172.955 37.1392 173.008 37.3967 173.014 37.6752C173.008 37.7759 172.969 37.8599 172.892 37.9257C172.817 37.9915 172.727 38.025 172.626 38.025H169.674L169.492 37.3785H172.353L172.209 37.5157V37.3253C172.193 37.1476 172.133 36.9923 172.027 36.8579C171.92 36.7236 171.79 36.62 171.634 36.5458C171.479 36.4731 171.316 36.4353 171.144 36.4353C170.992 36.4353 170.844 36.4591 170.703 36.5081C170.562 36.5556 170.437 36.634 170.33 36.7404C170.224 36.8467 170.137 36.9881 170.071 37.1616C170.006 37.3365 169.972 37.5534 169.972 37.8109C169.972 38.0894 170.031 38.3329 170.147 38.5414C170.263 38.75 170.42 38.9095 170.619 39.0242C170.816 39.139 171.038 39.195 171.281 39.195C171.464 39.195 171.616 39.1754 171.738 39.1376C171.86 39.0998 171.961 39.0522 172.042 38.9963C172.123 38.9403 172.195 38.8871 172.255 38.8367C172.336 38.7905 172.412 38.7681 172.483 38.7681C172.574 38.7681 172.651 38.8003 172.711 38.8633C172.773 38.9263 172.802 39.0018 172.802 39.0872C172.802 39.1992 172.746 39.2999 172.634 39.3909C172.497 39.5224 172.308 39.6386 172.067 39.7407C171.826 39.8443 171.574 39.8961 171.309 39.8961Z" fill="#575757"/>
<path d="M175.708 35.73C176.068 35.73 176.347 35.8042 176.546 35.9539C176.743 36.1036 176.882 36.3037 176.96 36.5542C177.039 36.8047 177.078 37.086 177.078 37.3939V39.4315C177.078 39.5434 177.041 39.6358 176.967 39.7086C176.893 39.7827 176.803 39.8191 176.697 39.8191C176.585 39.8191 176.494 39.7827 176.422 39.7086C176.351 39.6358 176.316 39.542 176.316 39.4315V37.4009C176.316 37.219 176.291 37.0552 176.24 36.9111C176.19 36.767 176.102 36.6508 175.977 36.5612C175.852 36.4731 175.679 36.4283 175.456 36.4283C175.247 36.4283 175.065 36.4731 174.908 36.5612C174.751 36.6494 174.628 36.767 174.54 36.9111C174.452 37.0552 174.407 37.219 174.407 37.4009V39.4315C174.407 39.5434 174.37 39.6358 174.296 39.7086C174.222 39.7827 174.132 39.8191 174.026 39.8191C173.914 39.8191 173.823 39.7827 173.753 39.7086C173.681 39.6358 173.646 39.542 173.646 39.4315V36.2072C173.646 36.0952 173.681 36.0029 173.753 35.9301C173.824 35.8573 173.915 35.8195 174.026 35.8195C174.132 35.8195 174.222 35.8559 174.296 35.9301C174.37 36.0043 174.407 36.0966 174.407 36.2072V36.6326L174.27 36.7082C174.305 36.5962 174.368 36.4843 174.456 36.3695C174.544 36.2562 174.652 36.1484 174.779 36.0505C174.907 35.9511 175.048 35.8727 175.205 35.8154C175.363 35.758 175.532 35.73 175.708 35.73Z" fill="#277CFB"/>
<path d="M187.046 35.783C187.142 35.783 187.226 35.8193 187.301 35.8935C187.375 35.9677 187.411 36.0614 187.411 36.179C187.411 36.2042 187.408 36.2294 187.404 36.2546C187.399 36.2798 187.392 36.3021 187.382 36.3231L186.218 39.5768C186.187 39.6636 186.134 39.7279 186.058 39.7713C185.983 39.8147 185.903 39.8315 185.823 39.8203C185.676 39.8105 185.567 39.7293 185.495 39.5768L184.635 37.2957L184.81 37.3111L184.019 39.5768C183.948 39.7293 183.838 39.8105 183.691 39.8203C183.616 39.8301 183.537 39.8147 183.459 39.7713C183.38 39.7279 183.326 39.6636 183.295 39.5768L182.123 36.3231C182.102 36.277 182.092 36.2294 182.092 36.179C182.092 36.0726 182.125 35.9803 182.194 35.9019C182.263 35.8235 182.355 35.7844 182.471 35.7844C182.553 35.7844 182.624 35.8054 182.688 35.8459C182.751 35.8865 182.796 35.9467 182.821 36.0279L183.796 38.7721L183.621 38.7567L184.413 36.6814C184.478 36.5247 184.595 36.4463 184.763 36.4463C184.854 36.4463 184.925 36.4673 184.976 36.5065C185.026 36.547 185.067 36.6058 185.097 36.6814L185.904 38.7651L185.698 38.7875L186.68 36.0279C186.732 35.8641 186.852 35.783 187.046 35.783Z" fill="#277CFB"/>
<defs>
<linearGradient id="paint0_linear_1_510" x1="22.8697" y1="0.000909628" x2="22.8697" y2="44.8549" gradientUnits="userSpaceOnUse">
<stop stop-color="#00A8FF"/>
<stop offset="1" stop-color="#1B4DFF"/>
</linearGradient>
</defs>
</svg>
